<?xml version="1.0" encoding="UTF-8"?>
<svg width="200px" height="50px" viewBox="0 0 200 50" version="1.1" xmlns="http://www.w3.org/2000/svg">
    <title>Flight Tracker Logo</title>
    <g stroke="none" stroke-width="1" fill="none" fill-rule="evenodd">
        <g transform="translate(10, 5)">
            <circle fill="#0056B3" cx="20" cy="20" r="20"></circle>
            <path d="M30,20 C30,18.8954305 29.1045695,18 28,18 L22,18 L22,12 C22,10.8954305 21.1045695,10 20,10 C18.8954305,10 18,10.8954305 18,12 L18,18 L12,18 C10.8954305,18 10,18.8954305 10,20 C10,21.1045695 10.8954305,22 12,22 L18,22 L18,28 C18,29.1045695 18.8954305,30 20,30 C21.1045695,30 22,29.1045695 22,28 L22,22 L28,22 C29.1045695,22 30,21.1045695 30,20 Z" fill="#FFFFFF" transform="translate(20.000000, 20.000000) rotate(45.000000) translate(-20.000000, -20.000000)"></path>
        </g>
        <text font-family="Roboto, Arial, sans-serif" font-size="20" font-weight="bold" fill="#0056B3" x="60" y="28">
            Flight Tracker
        </text>
    </g>
</svg>
